solid fpvlaptracker key 1.5mm a
facet normal 7.823355692464729e-32 -3.7391038236044663e-31 -1.0
  outer loop
    vertex -2.897777478867205 0.7764571353075611 6.599999999999999
    vertex -2.8977774788672046 -0.7764571353075631 6.599999999999999
    vertex -3.0 -3.67394039744206e-16 6.599999999999999
  endloop
endfacet
facet normal 7.823355692464729e-32 -3.7391038236044663e-31 -1.0
  outer loop
    vertex -2.8977774788672046 -0.7764571353075631 6.599999999999999
    vertex -2.897777478867205 0.7764571353075611 6.599999999999999
    vertex -2.598076211353316 1.4999999999999991 6.599999999999999
  endloop
endfacet
facet normal 7.823355692464729e-32 -3.7391038236044663e-31 -1.0
  outer loop
    vertex -2.8977774788672046 -0.7764571353075631 6.599999999999999
    vertex -2.598076211353316 1.4999999999999991 6.599999999999999
    vertex -2.5980762113533156 -1.500000000000001 6.599999999999999
  endloop
endfacet
facet normal 7.823355692464729e-32 -3.7391038236044663e-31 -1.0
  outer loop
    vertex -2.5980762113533156 -1.500000000000001 6.599999999999999
    vertex -2.598076211353316 1.4999999999999991 6.599999999999999
    vertex -2.1213203435596437 2.1213203435596415 6.599999999999999
  endloop
endfacet
facet normal 7.823355692464729e-32 -3.7391038236044663e-31 -1.0
  outer loop
    vertex -2.5980762113533156 -1.500000000000001 6.599999999999999
    vertex -2.1213203435596437 2.1213203435596415 6.599999999999999
    vertex -2.1213203435596424 -2.121320343559643 6.599999999999999
  endloop
endfacet
facet normal 7.823355692464729e-32 -3.7391038236044663e-31 -1.0
  outer loop
    vertex -2.1213203435596424 -2.121320343559643 6.599999999999999
    vertex -2.1213203435596437 2.1213203435596415 6.599999999999999
    vertex -1.5000000000000013 2.5980762113533156 6.599999999999999
  endloop
endfacet
facet normal 7.823355692464729e-32 -3.7391038236044663e-31 -1.0
  outer loop
    vertex -2.1213203435596424 -2.121320343559643 6.599999999999999
    vertex -1.5000000000000013 2.5980762113533156 6.599999999999999
    vertex -1.75 2.143131898507868e-16 6.599999999999999
  endloop
endfacet
facet normal 7.823355692464729e-32 -3.7391038236044663e-31 -1.0
  outer loop
    vertex -1.75 2.143131898507868e-16 6.599999999999999
    vertex -1.5000000000000013 2.5980762113533156 6.599999999999999
    vertex -1.6903701960058695 0.45293332892941174 6.599999999999999
  endloop
endfacet
facet normal 7.823355692464729e-32 -3.7391038236044663e-31 -1.0
  outer loop
    vertex -1.6903701960058695 0.45293332892941174 6.599999999999999
    vertex -1.5000000000000013 2.5980762113533156 6.599999999999999
    vertex -1.5155444566227674 0.8750000000000006 6.599999999999999
  endloop
endfacet
facet normal 7.823355692464729e-32 -3.7391038236044663e-31 -1.0
  outer loop
    vertex -1.5155444566227674 0.8750000000000006 6.599999999999999
    vertex -1.5000000000000013 2.5980762113533156 6.599999999999999
    vertex -1.2374368670764582 1.2374368670764582 6.599999999999999
  endloop
endfacet
facet normal 7.823355692464729e-32 -3.7391038236044663e-31 -1.0
  outer loop
    vertex -1.2374368670764582 1.2374368670764582 6.599999999999999
    vertex -1.5000000000000013 2.5980762113533156 6.599999999999999
    vertex -0.7764571353075645 2.8977774788672046 6.599999999999999
  endloop
endfacet
facet normal 7.823355692464729e-32 -3.7391038236044663e-31 -1.0
  outer loop
    vertex -1.2374368670764582 1.2374368670764582 6.599999999999999
    vertex -0.7764571353075645 2.8977774788672046 6.599999999999999
    vertex -0.8749999999999997 1.5155444566227676 6.599999999999999
  endloop
endfacet
facet normal 7.823355692464729e-32 -3.7391038236044663e-31 -1.0
  outer loop
    vertex -0.8749999999999997 1.5155444566227676 6.599999999999999
    vertex -0.7764571353075645 2.8977774788672046 6.599999999999999
    vertex -0.45293332892941107 1.6903701960058695 6.599999999999999
  endloop
endfacet
facet normal 7.823355692464729e-32 -3.7391038236044663e-31 -1.0
  outer loop
    vertex -0.45293332892941107 1.6903701960058695 6.599999999999999
    vertex -0.7764571353075645 2.8977774788672046 6.599999999999999
    vertex -5.510910596163089e-16 3.0 6.599999999999999
  endloop
endfacet
facet normal 7.823355692464729e-32 -3.7391038236044663e-31 -1.0
  outer loop
    vertex -0.45293332892941107 1.6903701960058695 6.599999999999999
    vertex -5.510910596163089e-16 3.0 6.599999999999999
    vertex 1.071565949253934e-16 1.75 6.599999999999999
  endloop
endfacet
facet normal 7.823355692464729e-32 -3.7391038236044663e-31 -1.0
  outer loop
    vertex 1.071565949253934e-16 1.75 6.599999999999999
    vertex -5.510910596163089e-16 3.0 6.599999999999999
    vertex 0.7764571353075608 2.897777478867205 6.599999999999999
  endloop
endfacet
facet normal 7.823355692464729e-32 -3.7391038236044663e-31 -1.0
  outer loop
    vertex 1.071565949253934e-16 1.75 6.599999999999999
    vertex 0.7764571353075608 2.897777478867205 6.599999999999999
    vertex 0.4529333289294117 1.6903701960058695 6.599999999999999
  endloop
endfacet
facet normal 7.823355692464729e-32 -3.7391038236044663e-31 -1.0
  outer loop
    vertex 0.4529333289294117 1.6903701960058695 6.599999999999999
    vertex 0.7764571353075608 2.897777478867205 6.599999999999999
    vertex 0.8750000000000001 1.5155444566227676 6.599999999999999
  endloop
endfacet
facet normal 7.823355692464729e-32 -3.7391038236044663e-31 -1.0
  outer loop
    vertex 0.8750000000000001 1.5155444566227676 6.599999999999999
    vertex 0.7764571353075608 2.897777478867205 6.599999999999999
    vertex 1.499999999999998 2.5980762113533173 6.599999999999999
  endloop
endfacet
facet normal 7.823355692464729e-32 -3.7391038236044663e-31 -1.0
  outer loop
    vertex 0.8750000000000001 1.5155444566227676 6.599999999999999
    vertex 1.499999999999998 2.5980762113533173 6.599999999999999
    vertex 1.2374368670764582 1.2374368670764582 6.599999999999999
  endloop
endfacet
facet normal 7.823355692464729e-32 -3.7391038236044663e-31 -1.0
  outer loop
    vertex 1.2374368670764582 1.2374368670764582 6.599999999999999
    vertex 1.499999999999998 2.5980762113533173 6.599999999999999
    vertex 1.5155444566227676 0.8749999999999998 6.599999999999999
  endloop
endfacet
facet normal 7.823355692464729e-32 -3.7391038236044663e-31 -1.0
  outer loop
    vertex 1.5155444566227676 0.8749999999999998 6.599999999999999
    vertex 1.499999999999998 2.5980762113533173 6.599999999999999
    vertex 2.121320343559642 2.1213203435596433 6.599999999999999
  endloop
endfacet
facet normal 7.823355692464729e-32 -3.7391038236044663e-31 -1.0
  outer loop
    vertex 1.5155444566227676 0.8749999999999998 6.599999999999999
    vertex 2.121320343559642 2.1213203435596433 6.599999999999999
    vertex 1.6903701960058695 0.4529333289294113 6.599999999999999
  endloop
endfacet
facet normal 7.823355692464729e-32 -3.7391038236044663e-31 -1.0
  outer loop
    vertex 1.6903701960058695 0.4529333289294113 6.599999999999999
    vertex 2.121320343559642 2.1213203435596433 6.599999999999999
    vertex 1.75 0.0 6.599999999999999
  endloop
endfacet
facet normal 7.823355692464729e-32 -3.7391038236044663e-31 -1.0
  outer loop
    vertex -1.75 2.143131898507868e-16 6.599999999999999
    vertex -1.4999999999999991 -2.598076211353316 6.599999999999999
    vertex -2.1213203435596424 -2.121320343559643 6.599999999999999
  endloop
endfacet
facet normal 7.823355692464729e-32 -3.7391038236044663e-31 -1.0
  outer loop
    vertex -1.4999999999999991 -2.598076211353316 6.599999999999999
    vertex -1.75 2.143131898507868e-16 6.599999999999999
    vertex -1.6903701960058697 -0.45293332892941063 6.599999999999999
  endloop
endfacet
facet normal 7.823355692464729e-32 -3.7391038236044663e-31 -1.0
  outer loop
    vertex -1.4999999999999991 -2.598076211353316 6.599999999999999
    vertex -1.6903701960058697 -0.45293332892941063 6.599999999999999
    vertex -1.5155444566227678 -0.8749999999999994 6.599999999999999
  endloop
endfacet
facet normal 7.823355692464729e-32 -3.7391038236044663e-31 -1.0
  outer loop
    vertex -1.4999999999999991 -2.598076211353316 6.599999999999999
    vertex -1.5155444566227678 -0.8749999999999994 6.599999999999999
    vertex -1.2374368670764588 -1.2374368670764573 6.599999999999999
  endloop
endfacet
facet normal 7.823355692464729e-32 -3.7391038236044663e-31 -1.0
  outer loop
    vertex -1.4999999999999991 -2.598076211353316 6.599999999999999
    vertex -1.2374368670764588 -1.2374368670764573 6.599999999999999
    vertex -0.7764571353075619 -2.897777478867205 6.599999999999999
  endloop
endfacet
facet normal 7.823355692464729e-32 -3.7391038236044663e-31 -1.0
  outer loop
    vertex -0.7764571353075619 -2.897777478867205 6.599999999999999
    vertex -1.2374368670764588 -1.2374368670764573 6.599999999999999
    vertex -0.8750000000000007 -1.5155444566227674 6.599999999999999
  endloop
endfacet
facet normal 7.823355692464729e-32 -3.7391038236044663e-31 -1.0
  outer loop
    vertex -0.7764571353075619 -2.897777478867205 6.599999999999999
    vertex -0.8750000000000007 -1.5155444566227674 6.599999999999999
    vertex -0.4529333289294126 -1.690370196005869 6.599999999999999
  endloop
endfacet
facet normal 7.823355692464729e-32 -3.7391038236044663e-31 -1.0
  outer loop
    vertex -0.7764571353075619 -2.897777478867205 6.599999999999999
    vertex -0.4529333289294126 -1.690370196005869 6.599999999999999
    vertex 1.8369701987210297e-16 -3.0 6.599999999999999
  endloop
endfacet
facet normal 7.823355692464729e-32 -3.7391038236044663e-31 -1.0
  outer loop
    vertex 1.8369701987210297e-16 -3.0 6.599999999999999
    vertex -0.4529333289294126 -1.690370196005869 6.599999999999999
    vertex -3.214697847761802e-16 -1.75 6.599999999999999
  endloop
endfacet
facet normal 7.823355692464729e-32 -3.7391038236044663e-31 -1.0
  outer loop
    vertex 1.8369701987210297e-16 -3.0 6.599999999999999
    vertex -3.214697847761802e-16 -1.75 6.599999999999999
    vertex 0.4529333289294105 -1.6903701960058697 6.599999999999999
  endloop
endfacet
facet normal 7.823355692464729e-32 -3.7391038236044663e-31 -1.0
  outer loop
    vertex 1.8369701987210297e-16 -3.0 6.599999999999999
    vertex 0.4529333289294105 -1.6903701960058697 6.599999999999999
    vertex 0.7764571353075629 -2.897777478867205 6.599999999999999
  endloop
endfacet
facet normal 7.823355692464729e-32 -3.7391038236044663e-31 -1.0
  outer loop
    vertex 0.7764571353075629 -2.897777478867205 6.599999999999999
    vertex 0.4529333289294105 -1.6903701960058697 6.599999999999999
    vertex 0.8749999999999988 -1.5155444566227683 6.599999999999999
  endloop
endfacet
facet normal 7.823355692464729e-32 -3.7391038236044663e-31 -1.0
  outer loop
    vertex 0.7764571353075629 -2.897777478867205 6.599999999999999
    vertex 0.8749999999999988 -1.5155444566227683 6.599999999999999
    vertex 1.5000000000000002 -2.5980762113533156 6.599999999999999
  endloop
endfacet
facet normal 7.823355692464729e-32 -3.7391038236044663e-31 -1.0
  outer loop
    vertex 1.5000000000000002 -2.5980762113533156 6.599999999999999
    vertex 0.8749999999999988 -1.5155444566227683 6.599999999999999
    vertex 1.237436867076458 -1.2374368670764584 6.599999999999999
  endloop
endfacet
facet normal 7.823355692464729e-32 -3.7391038236044663e-31 -1.0
  outer loop
    vertex 1.5000000000000002 -2.5980762113533156 6.599999999999999
    vertex 1.237436867076458 -1.2374368670764584 6.599999999999999
    vertex 1.5155444566227672 -0.8750000000000007 6.599999999999999
  endloop
endfacet
facet normal 7.823355692464729e-32 -3.7391038236044663e-31 -1.0
  outer loop
    vertex 1.5000000000000002 -2.5980762113533156 6.599999999999999
    vertex 1.5155444566227672 -0.8750000000000007 6.599999999999999
    vertex 2.1213203435596424 -2.121320343559643 6.599999999999999
  endloop
endfacet
facet normal 7.823355692464729e-32 -3.7391038236044663e-31 -1.0
  outer loop
    vertex 2.1213203435596424 -2.121320343559643 6.599999999999999
    vertex 1.5155444566227672 -0.8750000000000007 6.599999999999999
    vertex 1.690370196005869 -0.45293332892941274 6.599999999999999
  endloop
endfacet
facet normal 7.823355692464729e-32 -3.7391038236044663e-31 -1.0
  outer loop
    vertex 2.1213203435596424 -2.121320343559643 6.599999999999999
    vertex 1.690370196005869 -0.45293332892941274 6.599999999999999
    vertex 1.75 0.0 6.599999999999999
  endloop
endfacet
facet normal 7.823355692464729e-32 -3.7391038236044663e-31 -1.0
  outer loop
    vertex 2.1213203435596424 -2.121320343559643 6.599999999999999
    vertex 1.75 0.0 6.599999999999999
    vertex 2.121320343559642 2.1213203435596433 6.599999999999999
  endloop
endfacet
facet normal 7.823355692464729e-32 -3.7391038236044663e-31 -1.0
  outer loop
    vertex 2.1213203435596424 -2.121320343559643 6.599999999999999
    vertex 2.121320343559642 2.1213203435596433 6.599999999999999
    vertex 2.598076211353315 1.5000000000000016 6.599999999999999
  endloop
endfacet
facet normal 7.823355692464729e-32 -3.7391038236044663e-31 -1.0
  outer loop
    vertex 2.1213203435596424 -2.121320343559643 6.599999999999999
    vertex 2.598076211353315 1.5000000000000016 6.599999999999999
    vertex 2.5980762113533156 -1.5 6.599999999999999
  endloop
endfacet
facet normal 7.823355692464729e-32 -3.7391038236044663e-31 -1.0
  outer loop
    vertex 2.5980762113533156 -1.5 6.599999999999999
    vertex 2.598076211353315 1.5000000000000016 6.599999999999999
    vertex 2.897777478867204 0.7764571353075648 6.599999999999999
  endloop
endfacet
facet normal 7.823355692464729e-32 -3.7391038236044663e-31 -1.0
  outer loop
    vertex 2.5980762113533156 -1.5 6.599999999999999
    vertex 2.897777478867204 0.7764571353075648 6.599999999999999
    vertex 2.897777478867205 -0.7764571353075622 6.599999999999999
  endloop
endfacet
facet normal 7.823355692464729e-32 -3.7391038236044663e-31 -1.0
  outer loop
    vertex 2.897777478867205 -0.7764571353075622 6.599999999999999
    vertex 2.897777478867204 0.7764571353075648 6.599999999999999
    vertex 3.0 0.0 6.599999999999999
  endloop
endfacet
facet normal -0.9914448613738104 0.13052619222005168 0.0
  outer loop
    vertex -1.6903701960058695 0.45293332892941174 6.599999999999999
    vertex -1.75 2.143131898507868e-16 0.0
    vertex -1.75 2.143131898507868e-16 6.599999999999999
  endloop
endfacet
facet normal -0.9914448613738104 0.13052619222005168 0.0
  outer loop
    vertex -1.75 2.143131898507868e-16 0.0
    vertex -1.6903701960058695 0.45293332892941174 6.599999999999999
    vertex -1.6903701960058695 0.45293332892941174 0.0
  endloop
endfacet
facet normal -0.6087614290087213 -0.7933533402912346 -0.0
  outer loop
    vertex -0.8750000000000007 -1.5155444566227674 6.599999999999999
    vertex -1.2374368670764588 -1.2374368670764573 0.0
    vertex -0.8750000000000007 -1.5155444566227674 0.0
  endloop
endfacet
facet normal -0.6087614290087213 -0.7933533402912346 -0.0
  outer loop
    vertex -1.2374368670764588 -1.2374368670764573 0.0
    vertex -0.8750000000000007 -1.5155444566227674 6.599999999999999
    vertex -1.2374368670764588 -1.2374368670764573 6.599999999999999
  endloop
endfacet
facet normal 0.0 0.0 -1.0
  outer loop
    vertex -1.6903701960058695 0.45293332892941174 0.0
    vertex -1.6903701960058697 -0.45293332892941063 0.0
    vertex -1.75 2.143131898507868e-16 0.0
  endloop
endfacet
facet normal 0.0 0.0 -1.0
  outer loop
    vertex -1.6903701960058697 -0.45293332892941063 0.0
    vertex -1.6903701960058695 0.45293332892941174 0.0
    vertex -1.5155444566227678 -0.8749999999999994 0.0
  endloop
endfacet
facet normal 0.0 0.0 -1.0
  outer loop
    vertex -1.5155444566227678 -0.8749999999999994 0.0
    vertex -1.6903701960058695 0.45293332892941174 0.0
    vertex -1.5155444566227674 0.8750000000000006 0.0
  endloop
endfacet
facet normal 0.0 0.0 -1.0
  outer loop
    vertex -1.5155444566227678 -0.8749999999999994 0.0
    vertex -1.5155444566227674 0.8750000000000006 0.0
    vertex -1.2374368670764588 -1.2374368670764573 0.0
  endloop
endfacet
facet normal 0.0 0.0 -1.0
  outer loop
    vertex -1.2374368670764588 -1.2374368670764573 0.0
    vertex -1.5155444566227674 0.8750000000000006 0.0
    vertex -1.2374368670764582 1.2374368670764582 0.0
  endloop
endfacet
facet normal 0.0 0.0 -1.0
  outer loop
    vertex -1.2374368670764588 -1.2374368670764573 0.0
    vertex -1.2374368670764582 1.2374368670764582 0.0
    vertex -0.8750000000000007 -1.5155444566227674 0.0
  endloop
endfacet
facet normal 0.0 0.0 -1.0
  outer loop
    vertex -0.8750000000000007 -1.5155444566227674 0.0
    vertex -1.2374368670764582 1.2374368670764582 0.0
    vertex -0.8749999999999997 1.5155444566227676 0.0
  endloop
endfacet
facet normal 0.0 0.0 -1.0
  outer loop
    vertex -0.8750000000000007 -1.5155444566227674 0.0
    vertex -0.8749999999999997 1.5155444566227676 0.0
    vertex -0.4529333289294126 -1.690370196005869 0.0
  endloop
endfacet
facet normal 0.0 0.0 -1.0
  outer loop
    vertex -0.4529333289294126 -1.690370196005869 0.0
    vertex -0.8749999999999997 1.5155444566227676 0.0
    vertex -0.45293332892941107 1.6903701960058695 0.0
  endloop
endfacet
facet normal 0.0 0.0 -1.0
  outer loop
    vertex -0.4529333289294126 -1.690370196005869 0.0
    vertex -0.45293332892941107 1.6903701960058695 0.0
    vertex -3.214697847761802e-16 -1.75 0.0
  endloop
endfacet
facet normal 0.0 0.0 -1.0
  outer loop
    vertex -3.214697847761802e-16 -1.75 0.0
    vertex -0.45293332892941107 1.6903701960058695 0.0
    vertex 1.071565949253934e-16 1.75 0.0
  endloop
endfacet
facet normal 0.0 0.0 -1.0
  outer loop
    vertex -3.214697847761802e-16 -1.75 0.0
    vertex 1.071565949253934e-16 1.75 0.0
    vertex 0.4529333289294105 -1.6903701960058697 0.0
  endloop
endfacet
facet normal 0.0 0.0 -1.0
  outer loop
    vertex 0.4529333289294105 -1.6903701960058697 0.0
    vertex 1.071565949253934e-16 1.75 0.0
    vertex 0.4529333289294117 1.6903701960058695 0.0
  endloop
endfacet
facet normal 0.0 0.0 -1.0
  outer loop
    vertex 0.4529333289294105 -1.6903701960058697 0.0
    vertex 0.4529333289294117 1.6903701960058695 0.0
    vertex 0.8749999999999988 -1.5155444566227683 0.0
  endloop
endfacet
facet normal 0.0 0.0 -1.0
  outer loop
    vertex 0.8749999999999988 -1.5155444566227683 0.0
    vertex 0.4529333289294117 1.6903701960058695 0.0
    vertex 0.8750000000000001 1.5155444566227676 0.0
  endloop
endfacet
facet normal 0.0 0.0 -1.0
  outer loop
    vertex 0.8749999999999988 -1.5155444566227683 0.0
    vertex 0.8750000000000001 1.5155444566227676 0.0
    vertex 1.237436867076458 -1.2374368670764584 0.0
  endloop
endfacet
facet normal 0.0 0.0 -1.0
  outer loop
    vertex 1.237436867076458 -1.2374368670764584 0.0
    vertex 0.8750000000000001 1.5155444566227676 0.0
    vertex 1.2374368670764582 1.2374368670764582 0.0
  endloop
endfacet
facet normal 0.0 0.0 -1.0
  outer loop
    vertex 1.237436867076458 -1.2374368670764584 0.0
    vertex 1.2374368670764582 1.2374368670764582 0.0
    vertex 1.5155444566227672 -0.8750000000000007 0.0
  endloop
endfacet
facet normal 0.0 0.0 -1.0
  outer loop
    vertex 1.5155444566227672 -0.8750000000000007 0.0
    vertex 1.2374368670764582 1.2374368670764582 0.0
    vertex 1.5155444566227676 0.8749999999999998 0.0
  endloop
endfacet
facet normal 0.0 0.0 -1.0
  outer loop
    vertex 1.5155444566227672 -0.8750000000000007 0.0
    vertex 1.5155444566227676 0.8749999999999998 0.0
    vertex 1.690370196005869 -0.45293332892941274 0.0
  endloop
endfacet
facet normal 0.0 0.0 -1.0
  outer loop
    vertex 1.690370196005869 -0.45293332892941274 0.0
    vertex 1.5155444566227676 0.8749999999999998 0.0
    vertex 1.6903701960058695 0.4529333289294113 0.0
  endloop
endfacet
facet normal 0.0 0.0 -1.0
  outer loop
    vertex 1.690370196005869 -0.45293332892941274 0.0
    vertex 1.6903701960058695 0.4529333289294113 0.0
    vertex 1.75 0.0 0.0
  endloop
endfacet
facet normal -0.9914448613738105 -0.13052619222005113 -0.0
  outer loop
    vertex -1.75 2.143131898507868e-16 6.599999999999999
    vertex -1.6903701960058697 -0.45293332892941063 0.0
    vertex -1.6903701960058697 -0.45293332892941063 6.599999999999999
  endloop
endfacet
facet normal -0.9914448613738105 -0.13052619222005113 -0.0
  outer loop
    vertex -1.6903701960058697 -0.45293332892941063 0.0
    vertex -1.75 2.143131898507868e-16 6.599999999999999
    vertex -1.75 2.143131898507868e-16 0.0
  endloop
endfacet
facet normal -0.6087614290087203 0.7933533402912356 0.0
  outer loop
    vertex -1.2374368670764582 1.2374368670764582 6.599999999999999
    vertex -0.8749999999999997 1.5155444566227676 0.0
    vertex -1.2374368670764582 1.2374368670764582 0.0
  endloop
endfacet
facet normal -0.6087614290087203 0.7933533402912356 0.0
  outer loop
    vertex -0.8749999999999997 1.5155444566227676 0.0
    vertex -1.2374368670764582 1.2374368670764582 6.599999999999999
    vertex -0.8749999999999997 1.5155444566227676 6.599999999999999
  endloop
endfacet
facet normal -0.38268343236509 -0.9238795325112867 -0.0
  outer loop
    vertex -0.4529333289294126 -1.690370196005869 6.599999999999999
    vertex -0.8750000000000007 -1.5155444566227674 0.0
    vertex -0.4529333289294126 -1.690370196005869 0.0
  endloop
endfacet
facet normal -0.38268343236509 -0.9238795325112867 -0.0
  outer loop
    vertex -0.8750000000000007 -1.5155444566227674 0.0
    vertex -0.4529333289294126 -1.690370196005869 6.599999999999999
    vertex -0.8750000000000007 -1.5155444566227674 6.599999999999999
  endloop
endfacet
facet normal 0.9914448613738105 0.13052619222005177 0.0
  outer loop
    vertex 1.6903701960058695 0.4529333289294113 0.0
    vertex 1.75 0.0 6.599999999999999
    vertex 1.75 0.0 0.0
  endloop
endfacet
facet normal 0.9914448613738105 0.13052619222005177 0.0
  outer loop
    vertex 1.75 0.0 6.599999999999999
    vertex 1.6903701960058695 0.4529333289294113 0.0
    vertex 1.6903701960058695 0.4529333289294113 6.599999999999999
  endloop
endfacet
facet normal 0.38268343236508995 0.9238795325112866 0.0
  outer loop
    vertex 0.4529333289294117 1.6903701960058695 6.599999999999999
    vertex 0.8750000000000001 1.5155444566227676 0.0
    vertex 0.4529333289294117 1.6903701960058695 0.0
  endloop
endfacet
facet normal 0.38268343236508995 0.9238795325112866 0.0
  outer loop
    vertex 0.8750000000000001 1.5155444566227676 0.0
    vertex 0.4529333289294117 1.6903701960058695 6.599999999999999
    vertex 0.8750000000000001 1.5155444566227676 6.599999999999999
  endloop
endfacet
facet normal 0.13052619222005113 -0.9914448613738106 0.0
  outer loop
    vertex 0.4529333289294105 -1.6903701960058697 6.599999999999999
    vertex -3.214697847761802e-16 -1.75 0.0
    vertex 0.4529333289294105 -1.6903701960058697 0.0
  endloop
endfacet
facet normal 0.13052619222005113 -0.9914448613738106 0.0
  outer loop
    vertex -3.214697847761802e-16 -1.75 0.0
    vertex 0.4529333289294105 -1.6903701960058697 6.599999999999999
    vertex -3.214697847761802e-16 -1.75 6.599999999999999
  endloop
endfacet
facet normal 0.38268343236508917 -0.923879532511287 0.0
  outer loop
    vertex 0.8749999999999988 -1.5155444566227683 6.599999999999999
    vertex 0.4529333289294105 -1.6903701960058697 0.0
    vertex 0.8749999999999988 -1.5155444566227683 0.0
  endloop
endfacet
facet normal 0.38268343236508917 -0.923879532511287 0.0
  outer loop
    vertex 0.4529333289294105 -1.6903701960058697 0.0
    vertex 0.8749999999999988 -1.5155444566227683 6.599999999999999
    vertex 0.4529333289294105 -1.6903701960058697 6.599999999999999
  endloop
endfacet
facet normal -0.1305261922200518 0.9914448613738105 0.0
  outer loop
    vertex -0.45293332892941107 1.6903701960058695 6.599999999999999
    vertex 1.071565949253934e-16 1.75 0.0
    vertex -0.45293332892941107 1.6903701960058695 0.0
  endloop
endfacet
facet normal -0.1305261922200518 0.9914448613738105 0.0
  outer loop
    vertex 1.071565949253934e-16 1.75 0.0
    vertex -0.45293332892941107 1.6903701960058695 6.599999999999999
    vertex 1.071565949253934e-16 1.75 6.599999999999999
  endloop
endfacet
facet normal 0.6087614290087203 -0.7933533402912356 0.0
  outer loop
    vertex 1.237436867076458 -1.2374368670764584 6.599999999999999
    vertex 0.8749999999999988 -1.5155444566227683 0.0
    vertex 1.237436867076458 -1.2374368670764584 0.0
  endloop
endfacet
facet normal 0.6087614290087203 -0.7933533402912356 0.0
  outer loop
    vertex 0.8749999999999988 -1.5155444566227683 0.0
    vertex 1.237436867076458 -1.2374368670764584 6.599999999999999
    vertex 0.8749999999999988 -1.5155444566227683 6.599999999999999
  endloop
endfacet
facet normal 0.793353340291235 -0.6087614290087208 0.0
  outer loop
    vertex 1.5155444566227672 -0.8750000000000007 0.0
    vertex 1.237436867076458 -1.2374368670764584 6.599999999999999
    vertex 1.237436867076458 -1.2374368670764584 0.0
  endloop
endfacet
facet normal 0.793353340291235 -0.6087614290087208 0.0
  outer loop
    vertex 1.237436867076458 -1.2374368670764584 6.599999999999999
    vertex 1.5155444566227672 -0.8750000000000007 0.0
    vertex 1.5155444566227672 -0.8750000000000007 6.599999999999999
  endloop
endfacet
facet normal 0.9914448613738105 -0.13052619222005213 0.0
  outer loop
    vertex 1.75 0.0 0.0
    vertex 1.690370196005869 -0.45293332892941274 6.599999999999999
    vertex 1.690370196005869 -0.45293332892941274 0.0
  endloop
endfacet
facet normal 0.9914448613738105 -0.13052619222005213 0.0
  outer loop
    vertex 1.690370196005869 -0.45293332892941274 6.599999999999999
    vertex 1.75 0.0 0.0
    vertex 1.75 0.0 6.599999999999999
  endloop
endfacet
facet normal 0.13052619222005168 0.9914448613738104 0.0
  outer loop
    vertex 1.071565949253934e-16 1.75 6.599999999999999
    vertex 0.4529333289294117 1.6903701960058695 0.0
    vertex 1.071565949253934e-16 1.75 0.0
  endloop
endfacet
facet normal 0.13052619222005168 0.9914448613738104 0.0
  outer loop
    vertex 0.4529333289294117 1.6903701960058695 0.0
    vertex 1.071565949253934e-16 1.75 6.599999999999999
    vertex 0.4529333289294117 1.6903701960058695 6.599999999999999
  endloop
endfacet
facet normal -0.13052619222005224 -0.9914448613738104 -0.0
  outer loop
    vertex -3.214697847761802e-16 -1.75 6.599999999999999
    vertex -0.4529333289294126 -1.690370196005869 0.0
    vertex -3.214697847761802e-16 -1.75 0.0
  endloop
endfacet
facet normal -0.13052619222005224 -0.9914448613738104 -0.0
  outer loop
    vertex -0.4529333289294126 -1.690370196005869 0.0
    vertex -3.214697847761802e-16 -1.75 6.599999999999999
    vertex -0.4529333289294126 -1.690370196005869 6.599999999999999
  endloop
endfacet
facet normal 0.9238795325112868 0.38268343236508967 0.0
  outer loop
    vertex 1.5155444566227676 0.8749999999999998 0.0
    vertex 1.6903701960058695 0.4529333289294113 6.599999999999999
    vertex 1.6903701960058695 0.4529333289294113 0.0
  endloop
endfacet
facet normal 0.9238795325112868 0.38268343236508967 0.0
  outer loop
    vertex 1.6903701960058695 0.4529333289294113 6.599999999999999
    vertex 1.5155444566227676 0.8749999999999998 0.0
    vertex 1.5155444566227676 0.8749999999999998 6.599999999999999
  endloop
endfacet
facet normal 0.6087614290087204 0.7933533402912354 0.0
  outer loop
    vertex 0.8750000000000001 1.5155444566227676 6.599999999999999
    vertex 1.2374368670764582 1.2374368670764582 0.0
    vertex 0.8750000000000001 1.5155444566227676 0.0
  endloop
endfacet
facet normal 0.6087614290087204 0.7933533402912354 0.0
  outer loop
    vertex 1.2374368670764582 1.2374368670764582 0.0
    vertex 0.8750000000000001 1.5155444566227676 6.599999999999999
    vertex 1.2374368670764582 1.2374368670764582 6.599999999999999
  endloop
endfacet
facet normal -0.38268343236508956 0.9238795325112867 0.0
  outer loop
    vertex -0.8749999999999997 1.5155444566227676 6.599999999999999
    vertex -0.45293332892941107 1.6903701960058695 0.0
    vertex -0.8749999999999997 1.5155444566227676 0.0
  endloop
endfacet
facet normal -0.38268343236508956 0.9238795325112867 0.0
  outer loop
    vertex -0.45293332892941107 1.6903701960058695 0.0
    vertex -0.8749999999999997 1.5155444566227676 6.599999999999999
    vertex -0.45293332892941107 1.6903701960058695 6.599999999999999
  endloop
endfacet
facet normal -0.9238795325112868 -0.3826834323650898 -0.0
  outer loop
    vertex -1.6903701960058697 -0.45293332892941063 6.599999999999999
    vertex -1.5155444566227678 -0.8749999999999994 0.0
    vertex -1.5155444566227678 -0.8749999999999994 6.599999999999999
  endloop
endfacet
facet normal -0.9238795325112868 -0.3826834323650898 -0.0
  outer loop
    vertex -1.5155444566227678 -0.8749999999999994 0.0
    vertex -1.6903701960058697 -0.45293332892941063 6.599999999999999
    vertex -1.6903701960058697 -0.45293332892941063 0.0
  endloop
endfacet
facet normal 0.7933533402912356 0.6087614290087203 0.0
  outer loop
    vertex 1.2374368670764582 1.2374368670764582 0.0
    vertex 1.5155444566227676 0.8749999999999998 6.599999999999999
    vertex 1.5155444566227676 0.8749999999999998 0.0
  endloop
endfacet
facet normal 0.7933533402912356 0.6087614290087203 0.0
  outer loop
    vertex 1.5155444566227676 0.8749999999999998 6.599999999999999
    vertex 1.2374368670764582 1.2374368670764582 0.0
    vertex 1.2374368670764582 1.2374368670764582 6.599999999999999
  endloop
endfacet
facet normal -0.793353340291235 0.6087614290087208 0.0
  outer loop
    vertex -1.2374368670764582 1.2374368670764582 6.599999999999999
    vertex -1.5155444566227674 0.8750000000000006 0.0
    vertex -1.5155444566227674 0.8750000000000006 6.599999999999999
  endloop
endfacet
facet normal -0.793353340291235 0.6087614290087208 0.0
  outer loop
    vertex -1.5155444566227674 0.8750000000000006 0.0
    vertex -1.2374368670764582 1.2374368670764582 6.599999999999999
    vertex -1.2374368670764582 1.2374368670764582 0.0
  endloop
endfacet
facet normal -0.9238795325112867 0.3826834323650901 0.0
  outer loop
    vertex -1.5155444566227674 0.8750000000000006 6.599999999999999
    vertex -1.6903701960058695 0.45293332892941174 0.0
    vertex -1.6903701960058695 0.45293332892941174 6.599999999999999
  endloop
endfacet
facet normal -0.9238795325112867 0.3826834323650901 0.0
  outer loop
    vertex -1.6903701960058695 0.45293332892941174 0.0
    vertex -1.5155444566227674 0.8750000000000006 6.599999999999999
    vertex -1.5155444566227674 0.8750000000000006 0.0
  endloop
endfacet
facet normal -0.7933533402912354 -0.6087614290087203 -0.0
  outer loop
    vertex -1.5155444566227678 -0.8749999999999994 6.599999999999999
    vertex -1.2374368670764588 -1.2374368670764573 0.0
    vertex -1.2374368670764588 -1.2374368670764573 6.599999999999999
  endloop
endfacet
facet normal -0.7933533402912354 -0.6087614290087203 -0.0
  outer loop
    vertex -1.2374368670764588 -1.2374368670764573 0.0
    vertex -1.5155444566227678 -0.8749999999999994 6.599999999999999
    vertex -1.5155444566227678 -0.8749999999999994 0.0
  endloop
endfacet
facet normal 0.9238795325112865 -0.3826834323650904 0.0
  outer loop
    vertex 1.690370196005869 -0.45293332892941274 0.0
    vertex 1.5155444566227672 -0.8750000000000007 6.599999999999999
    vertex 1.5155444566227672 -0.8750000000000007 0.0
  endloop
endfacet
facet normal 0.9238795325112865 -0.3826834323650904 0.0
  outer loop
    vertex 1.5155444566227672 -0.8750000000000007 6.599999999999999
    vertex 1.690370196005869 -0.45293332892941274 0.0
    vertex 1.690370196005869 -0.45293332892941274 6.599999999999999
  endloop
endfacet
facet normal -0.0 -0.0 1.0
  outer loop
    vertex -1.4999999999999991 -2.598076211353316 8.099999999999996
    vertex -1.75 2.1431318985078754e-16 8.099999999999996
    vertex -2.1213203435596424 -2.121320343559643 8.099999999999996
  endloop
endfacet
facet normal -0.0 -0.0 1.0
  outer loop
    vertex -1.75 2.1431318985078754e-16 8.099999999999996
    vertex -1.4999999999999991 -2.598076211353316 8.099999999999996
    vertex -1.6903701960058697 -0.45293332892941063 8.099999999999996
  endloop
endfacet
facet normal -0.0 -0.0 1.0
  outer loop
    vertex -1.6903701960058697 -0.45293332892941063 8.099999999999996
    vertex -1.4999999999999991 -2.598076211353316 8.099999999999996
    vertex -1.5155444566227678 -0.8749999999999994 8.099999999999996
  endloop
endfacet
facet normal -0.0 -0.0 1.0
  outer loop
    vertex -1.5155444566227678 -0.8749999999999994 8.099999999999996
    vertex -1.4999999999999991 -2.598076211353316 8.099999999999996
    vertex -1.2374368670764588 -1.2374368670764573 8.099999999999996
  endloop
endfacet
facet normal -0.0 -0.0 1.0
  outer loop
    vertex -1.2374368670764588 -1.2374368670764573 8.099999999999996
    vertex -1.4999999999999991 -2.598076211353316 8.099999999999996
    vertex -0.7764571353075619 -2.897777478867205 8.099999999999996
  endloop
endfacet
facet normal -0.0 -0.0 1.0
  outer loop
    vertex -1.2374368670764588 -1.2374368670764573 8.099999999999996
    vertex -0.7764571353075619 -2.897777478867205 8.099999999999996
    vertex -0.8750000000000007 -1.5155444566227674 8.099999999999996
  endloop
endfacet
facet normal -0.0 -0.0 1.0
  outer loop
    vertex -0.8750000000000007 -1.5155444566227674 8.099999999999996
    vertex -0.7764571353075619 -2.897777478867205 8.099999999999996
    vertex -0.4529333289294126 -1.690370196005869 8.099999999999996
  endloop
endfacet
facet normal -0.0 -0.0 1.0
  outer loop
    vertex -0.4529333289294126 -1.690370196005869 8.099999999999996
    vertex -0.7764571353075619 -2.897777478867205 8.099999999999996
    vertex 1.836970198721028e-16 -3.0 8.099999999999996
  endloop
endfacet
facet normal -0.0 -0.0 1.0
  outer loop
    vertex -0.4529333289294126 -1.690370196005869 8.099999999999996
    vertex 1.836970198721028e-16 -3.0 8.099999999999996
    vertex -3.2146978477618036e-16 -1.75 8.099999999999996
  endloop
endfacet
facet normal -0.0 -0.0 1.0
  outer loop
    vertex -3.2146978477618036e-16 -1.75 8.099999999999996
    vertex 1.836970198721028e-16 -3.0 8.099999999999996
    vertex 0.4529333289294105 -1.6903701960058697 8.099999999999996
  endloop
endfacet
facet normal -0.0 -0.0 1.0
  outer loop
    vertex 0.4529333289294105 -1.6903701960058697 8.099999999999996
    vertex 1.836970198721028e-16 -3.0 8.099999999999996
    vertex 0.7764571353075629 -2.897777478867205 8.099999999999996
  endloop
endfacet
facet normal -0.0 -0.0 1.0
  outer loop
    vertex 0.4529333289294105 -1.6903701960058697 8.099999999999996
    vertex 0.7764571353075629 -2.897777478867205 8.099999999999996
    vertex 0.8749999999999988 -1.5155444566227683 8.099999999999996
  endloop
endfacet
facet normal -0.0 -0.0 1.0
  outer loop
    vertex 0.8749999999999988 -1.5155444566227683 8.099999999999996
    vertex 0.7764571353075629 -2.897777478867205 8.099999999999996
    vertex 1.5000000000000002 -2.5980762113533156 8.099999999999996
  endloop
endfacet
facet normal -0.0 -0.0 1.0
  outer loop
    vertex 0.8749999999999988 -1.5155444566227683 8.099999999999996
    vertex 1.5000000000000002 -2.5980762113533156 8.099999999999996
    vertex 1.237436867076458 -1.2374368670764584 8.099999999999996
  endloop
endfacet
facet normal -0.0 -0.0 1.0
  outer loop
    vertex 1.237436867076458 -1.2374368670764584 8.099999999999996
    vertex 1.5000000000000002 -2.5980762113533156 8.099999999999996
    vertex 1.5155444566227672 -0.8750000000000007 8.099999999999996
  endloop
endfacet
facet normal -0.0 -0.0 1.0
  outer loop
    vertex 1.5155444566227672 -0.8750000000000007 8.099999999999996
    vertex 1.5000000000000002 -2.5980762113533156 8.099999999999996
    vertex 2.1213203435596424 -2.121320343559643 8.099999999999996
  endloop
endfacet
facet normal -0.0 -0.0 1.0
  outer loop
    vertex 1.5155444566227672 -0.8750000000000007 8.099999999999996
    vertex 2.1213203435596424 -2.121320343559643 8.099999999999996
    vertex 1.690370196005869 -0.45293332892941274 8.099999999999996
  endloop
endfacet
facet normal -0.0 -0.0 1.0
  outer loop
    vertex 1.690370196005869 -0.45293332892941274 8.099999999999996
    vertex 2.1213203435596424 -2.121320343559643 8.099999999999996
    vertex 1.75 7.478207647208932e-31 8.099999999999996
  endloop
endfacet
facet normal -0.0 -0.0 1.0
  outer loop
    vertex 1.75 7.478207647208932e-31 8.099999999999996
    vertex 2.1213203435596424 -2.121320343559643 8.099999999999996
    vertex 2.121320343559642 2.1213203435596433 8.099999999999996
  endloop
endfacet
facet normal -0.0 -0.0 1.0
  outer loop
    vertex 2.121320343559642 2.1213203435596433 8.099999999999996
    vertex 2.1213203435596424 -2.121320343559643 8.099999999999996
    vertex 2.598076211353315 1.5000000000000016 8.099999999999996
  endloop
endfacet
facet normal -0.0 -0.0 1.0
  outer loop
    vertex 2.598076211353315 1.5000000000000016 8.099999999999996
    vertex 2.1213203435596424 -2.121320343559643 8.099999999999996
    vertex 2.5980762113533156 -1.5 8.099999999999996
  endloop
endfacet
facet normal -0.0 -0.0 1.0
  outer loop
    vertex 2.598076211353315 1.5000000000000016 8.099999999999996
    vertex 2.5980762113533156 -1.5 8.099999999999996
    vertex 2.897777478867204 0.7764571353075648 8.099999999999996
  endloop
endfacet
facet normal -0.0 -0.0 1.0
  outer loop
    vertex 2.897777478867204 0.7764571353075648 8.099999999999996
    vertex 2.5980762113533156 -1.5 8.099999999999996
    vertex 2.897777478867205 -0.7764571353075622 8.099999999999996
  endloop
endfacet
facet normal -0.0 -0.0 1.0
  outer loop
    vertex 2.897777478867204 0.7764571353075648 8.099999999999996
    vertex 2.897777478867205 -0.7764571353075622 8.099999999999996
    vertex 3.0 7.478207647208932e-31 8.099999999999996
  endloop
endfacet
facet normal -0.0 -0.0 1.0
  outer loop
    vertex -2.8977774788672046 -0.7764571353075631 8.099999999999996
    vertex -2.897777478867205 0.7764571353075611 8.099999999999996
    vertex -3.0 -3.673940397442052e-16 8.099999999999996
  endloop
endfacet
facet normal -0.0 -0.0 1.0
  outer loop
    vertex -2.897777478867205 0.7764571353075611 8.099999999999996
    vertex -2.8977774788672046 -0.7764571353075631 8.099999999999996
    vertex -2.598076211353316 1.4999999999999991 8.099999999999996
  endloop
endfacet
facet normal -0.0 -0.0 1.0
  outer loop
    vertex -2.598076211353316 1.4999999999999991 8.099999999999996
    vertex -2.8977774788672046 -0.7764571353075631 8.099999999999996
    vertex -2.5980762113533156 -1.500000000000001 8.099999999999996
  endloop
endfacet
facet normal -0.0 -0.0 1.0
  outer loop
    vertex -2.598076211353316 1.4999999999999991 8.099999999999996
    vertex -2.5980762113533156 -1.500000000000001 8.099999999999996
    vertex -2.1213203435596437 2.1213203435596415 8.099999999999996
  endloop
endfacet
facet normal -0.0 -0.0 1.0
  outer loop
    vertex -2.1213203435596437 2.1213203435596415 8.099999999999996
    vertex -2.5980762113533156 -1.500000000000001 8.099999999999996
    vertex -2.1213203435596424 -2.121320343559643 8.099999999999996
  endloop
endfacet
facet normal -0.0 -0.0 1.0
  outer loop
    vertex -2.1213203435596437 2.1213203435596415 8.099999999999996
    vertex -2.1213203435596424 -2.121320343559643 8.099999999999996
    vertex -1.5000000000000013 2.5980762113533156 8.099999999999996
  endloop
endfacet
facet normal -0.0 -0.0 1.0
  outer loop
    vertex -1.5000000000000013 2.5980762113533156 8.099999999999996
    vertex -2.1213203435596424 -2.121320343559643 8.099999999999996
    vertex -1.75 2.1431318985078754e-16 8.099999999999996
  endloop
endfacet
facet normal -0.0 -0.0 1.0
  outer loop
    vertex -1.5000000000000013 2.5980762113533156 8.099999999999996
    vertex -1.75 2.1431318985078754e-16 8.099999999999996
    vertex -1.6903701960058695 0.45293332892941174 8.099999999999996
  endloop
endfacet
facet normal -0.0 -0.0 1.0
  outer loop
    vertex -1.5000000000000013 2.5980762113533156 8.099999999999996
    vertex -1.6903701960058695 0.45293332892941174 8.099999999999996
    vertex -1.5155444566227674 0.8750000000000006 8.099999999999996
  endloop
endfacet
facet normal -0.0 -0.0 1.0
  outer loop
    vertex -1.5000000000000013 2.5980762113533156 8.099999999999996
    vertex -1.5155444566227674 0.8750000000000006 8.099999999999996
    vertex -1.2374368670764582 1.2374368670764582 8.099999999999996
  endloop
endfacet
facet normal -0.0 -0.0 1.0
  outer loop
    vertex -1.5000000000000013 2.5980762113533156 8.099999999999996
    vertex -1.2374368670764582 1.2374368670764582 8.099999999999996
    vertex -0.7764571353075645 2.8977774788672046 8.099999999999996
  endloop
endfacet
facet normal -0.0 -0.0 1.0
  outer loop
    vertex -0.7764571353075645 2.8977774788672046 8.099999999999996
    vertex -1.2374368670764582 1.2374368670764582 8.099999999999996
    vertex -0.8749999999999997 1.5155444566227676 8.099999999999996
  endloop
endfacet
facet normal -0.0 -0.0 1.0
  outer loop
    vertex -0.7764571353075645 2.8977774788672046 8.099999999999996
    vertex -0.8749999999999997 1.5155444566227676 8.099999999999996
    vertex -0.45293332892941107 1.6903701960058695 8.099999999999996
  endloop
endfacet
facet normal -0.0 -0.0 1.0
  outer loop
    vertex -0.7764571353075645 2.8977774788672046 8.099999999999996
    vertex -0.45293332892941107 1.6903701960058695 8.099999999999996
    vertex -5.51091059616309e-16 3.0 8.099999999999996
  endloop
endfacet
facet normal -0.0 -0.0 1.0
  outer loop
    vertex -5.51091059616309e-16 3.0 8.099999999999996
    vertex -0.45293332892941107 1.6903701960058695 8.099999999999996
    vertex 1.0715659492539324e-16 1.75 8.099999999999996
  endloop
endfacet
facet normal -0.0 -0.0 1.0
  outer loop
    vertex -5.51091059616309e-16 3.0 8.099999999999996
    vertex 1.0715659492539324e-16 1.75 8.099999999999996
    vertex 0.7764571353075608 2.897777478867205 8.099999999999996
  endloop
endfacet
facet normal -0.0 -0.0 1.0
  outer loop
    vertex 0.7764571353075608 2.897777478867205 8.099999999999996
    vertex 1.0715659492539324e-16 1.75 8.099999999999996
    vertex 0.4529333289294117 1.6903701960058695 8.099999999999996
  endloop
endfacet
facet normal -0.0 -0.0 1.0
  outer loop
    vertex 0.7764571353075608 2.897777478867205 8.099999999999996
    vertex 0.4529333289294117 1.6903701960058695 8.099999999999996
    vertex 0.8750000000000001 1.5155444566227676 8.099999999999996
  endloop
endfacet
facet normal -0.0 -0.0 1.0
  outer loop
    vertex 0.7764571353075608 2.897777478867205 8.099999999999996
    vertex 0.8750000000000001 1.5155444566227676 8.099999999999996
    vertex 1.499999999999998 2.5980762113533173 8.099999999999996
  endloop
endfacet
facet normal -0.0 -0.0 1.0
  outer loop
    vertex 1.499999999999998 2.5980762113533173 8.099999999999996
    vertex 0.8750000000000001 1.5155444566227676 8.099999999999996
    vertex 1.2374368670764582 1.2374368670764582 8.099999999999996
  endloop
endfacet
facet normal -0.0 -0.0 1.0
  outer loop
    vertex 1.499999999999998 2.5980762113533173 8.099999999999996
    vertex 1.2374368670764582 1.2374368670764582 8.099999999999996
    vertex 1.5155444566227676 0.8749999999999998 8.099999999999996
  endloop
endfacet
facet normal -0.0 -0.0 1.0
  outer loop
    vertex 1.499999999999998 2.5980762113533173 8.099999999999996
    vertex 1.5155444566227676 0.8749999999999998 8.099999999999996
    vertex 2.121320343559642 2.1213203435596433 8.099999999999996
  endloop
endfacet
facet normal -0.0 -0.0 1.0
  outer loop
    vertex 2.121320343559642 2.1213203435596433 8.099999999999996
    vertex 1.5155444566227676 0.8749999999999998 8.099999999999996
    vertex 1.6903701960058695 0.4529333289294113 8.099999999999996
  endloop
endfacet
facet normal -0.0 -0.0 1.0
  outer loop
    vertex 2.121320343559642 2.1213203435596433 8.099999999999996
    vertex 1.6903701960058695 0.4529333289294113 8.099999999999996
    vertex 1.75 7.478207647208932e-31 8.099999999999996
  endloop
endfacet
facet normal 0.9238795325112867 -0.38268343236509006 2.1536769051687718e-31
  outer loop
    vertex 2.897777478867205 -0.7764571353075622 6.599999999999999
    vertex 2.5980762113533156 -1.5 8.099999999999996
    vertex 2.5980762113533156 -1.5 6.599999999999999
  endloop
endfacet
facet normal 0.9238795325112867 -0.38268343236509006 2.1536769051687718e-31
  outer loop
    vertex 2.5980762113533156 -1.5 8.099999999999996
    vertex 2.897777478867205 -0.7764571353075622 6.599999999999999
    vertex 2.897777478867205 -0.7764571353075622 8.099999999999996
  endloop
endfacet
facet normal 0.7933533402912356 -0.6087614290087202 2.896890723959759e-31
  outer loop
    vertex 2.5980762113533156 -1.5 6.599999999999999
    vertex 2.1213203435596424 -2.121320343559643 8.099999999999996
    vertex 2.1213203435596424 -2.121320343559643 6.599999999999999
  endloop
endfacet
facet normal 0.7933533402912356 -0.6087614290087202 2.896890723959759e-31
  outer loop
    vertex 2.1213203435596424 -2.121320343559643 8.099999999999996
    vertex 2.5980762113533156 -1.5 6.599999999999999
    vertex 2.5980762113533156 -1.5 8.099999999999996
  endloop
endfacet
facet normal 0.6087614290087203 -0.7933533402912354 3.4426862272511664e-31
  outer loop
    vertex 2.1213203435596424 -2.121320343559643 8.099999999999996
    vertex 1.5000000000000002 -2.5980762113533156 6.599999999999999
    vertex 2.1213203435596424 -2.121320343559643 6.599999999999999
  endloop
endfacet
facet normal 0.6087614290087203 -0.7933533402912354 3.4426862272511664e-31
  outer loop
    vertex 1.5000000000000002 -2.5980762113533156 6.599999999999999
    vertex 2.1213203435596424 -2.121320343559643 8.099999999999996
    vertex 1.5000000000000002 -2.5980762113533156 8.099999999999996
  endloop
endfacet
facet normal 0.3826834323650902 -0.9238795325112867 3.753868353463396e-31
  outer loop
    vertex 1.5000000000000002 -2.5980762113533156 8.099999999999996
    vertex 0.7764571353075629 -2.897777478867205 6.599999999999999
    vertex 1.5000000000000002 -2.5980762113533156 6.599999999999999
  endloop
endfacet
facet normal 0.3826834323650902 -0.9238795325112867 3.753868353463396e-31
  outer loop
    vertex 0.7764571353075629 -2.897777478867205 6.599999999999999
    vertex 1.5000000000000002 -2.5980762113533156 8.099999999999996
    vertex 0.7764571353075629 -2.897777478867205 8.099999999999996
  endloop
endfacet
facet normal 0.13052619222005168 -0.9914448613738105 3.8092305549478635e-31
  outer loop
    vertex 0.7764571353075629 -2.897777478867205 8.099999999999996
    vertex 1.8369701987210297e-16 -3.0 6.599999999999999
    vertex 0.7764571353075629 -2.897777478867205 6.599999999999999
  endloop
endfacet
facet normal 0.13052619222005168 -0.9914448613738105 3.8092305549478635e-31
  outer loop
    vertex 1.8369701987210297e-16 -3.0 6.599999999999999
    vertex 0.7764571353075629 -2.897777478867205 8.099999999999996
    vertex 1.836970198721028e-16 -3.0 8.099999999999996
  endloop
endfacet
facet normal -0.13052619222005135 -0.9914448613738105 3.6049999891637666e-31
  outer loop
    vertex 1.836970198721028e-16 -3.0 8.099999999999996
    vertex -0.7764571353075619 -2.897777478867205 6.599999999999999
    vertex 1.8369701987210297e-16 -3.0 6.599999999999999
  endloop
endfacet
facet normal -0.13052619222005135 -0.9914448613738105 3.6049999891637666e-31
  outer loop
    vertex -0.7764571353075619 -2.897777478867205 6.599999999999999
    vertex 1.836970198721028e-16 -3.0 8.099999999999996
    vertex -0.7764571353075619 -2.897777478867205 8.099999999999996
  endloop
endfacet
facet normal -0.3826834323650902 -0.9238795325112866 3.155094631662322e-31
  outer loop
    vertex -0.7764571353075619 -2.897777478867205 8.099999999999996
    vertex -1.4999999999999991 -2.598076211353316 6.599999999999999
    vertex -0.7764571353075619 -2.897777478867205 6.599999999999999
  endloop
endfacet
facet normal -0.3826834323650902 -0.9238795325112866 3.155094631662322e-31
  outer loop
    vertex -1.4999999999999991 -2.598076211353316 6.599999999999999
    vertex -0.7764571353075619 -2.897777478867205 8.099999999999996
    vertex -1.4999999999999991 -2.598076211353316 8.099999999999996
  endloop
endfacet
facet normal -0.6087614290087202 -0.7933533402912356 2.490174789053501e-31
  outer loop
    vertex -1.4999999999999991 -2.598076211353316 8.099999999999996
    vertex -2.1213203435596424 -2.121320343559643 6.599999999999999
    vertex -1.4999999999999991 -2.598076211353316 6.599999999999999
  endloop
endfacet
facet normal -0.6087614290087202 -0.7933533402912356 2.490174789053501e-31
  outer loop
    vertex -2.1213203435596424 -2.121320343559643 6.599999999999999
    vertex -1.4999999999999991 -2.598076211353316 8.099999999999996
    vertex -2.1213203435596424 -2.121320343559643 8.099999999999996
  endloop
endfacet
facet normal -0.793353340291235 -0.608761429008721 1.6555536497790937e-31
  outer loop
    vertex -2.5980762113533156 -1.500000000000001 8.099999999999996
    vertex -2.1213203435596424 -2.121320343559643 6.599999999999999
    vertex -2.1213203435596424 -2.121320343559643 8.099999999999996
  endloop
endfacet
facet normal -0.793353340291235 -0.608761429008721 1.6555536497790937e-31
  outer loop
    vertex -2.1213203435596424 -2.121320343559643 6.599999999999999
    vertex -2.5980762113533156 -1.500000000000001 8.099999999999996
    vertex -2.5980762113533156 -1.500000000000001 6.599999999999999
  endloop
endfacet
facet normal -0.9238795325112867 -0.3826834323650899 7.08109265204006e-32
  outer loop
    vertex -2.8977774788672046 -0.7764571353075631 8.099999999999996
    vertex -2.5980762113533156 -1.500000000000001 6.599999999999999
    vertex -2.5980762113533156 -1.500000000000001 8.099999999999996
  endloop
endfacet
facet normal -0.9238795325112867 -0.3826834323650899 7.08109265204006e-32
  outer loop
    vertex -2.5980762113533156 -1.500000000000001 6.599999999999999
    vertex -2.8977774788672046 -0.7764571353075631 8.099999999999996
    vertex -2.8977774788672046 -0.7764571353075631 6.599999999999999
  endloop
endfacet
facet normal -0.9914448613738104 -0.13052619222005166 -2.8759159558884374e-32
  outer loop
    vertex -3.0 -3.673940397442052e-16 8.099999999999996
    vertex -2.8977774788672046 -0.7764571353075631 6.599999999999999
    vertex -2.8977774788672046 -0.7764571353075631 8.099999999999996
  endloop
endfacet
facet normal -0.9914448613738104 -0.13052619222005166 -2.8759159558884374e-32
  outer loop
    vertex -2.8977774788672046 -0.7764571353075631 6.599999999999999
    vertex -3.0 -3.673940397442052e-16 8.099999999999996
    vertex -3.0 -3.67394039744206e-16 6.599999999999999
  endloop
endfacet
facet normal -0.9914448613738104 0.13052619222005143 -1.2636935644098962e-31
  outer loop
    vertex -3.0 -3.673940397442052e-16 8.099999999999996
    vertex -2.897777478867205 0.7764571353075611 6.599999999999999
    vertex -3.0 -3.67394039744206e-16 6.599999999999999
  endloop
endfacet
facet normal -0.9914448613738104 0.13052619222005143 -1.2636935644098962e-31
  outer loop
    vertex -2.897777478867205 0.7764571353075611 6.599999999999999
    vertex -3.0 -3.673940397442052e-16 8.099999999999996
    vertex -2.897777478867205 0.7764571353075611 8.099999999999996
  endloop
endfacet
facet normal -0.9238795325112868 0.38268343236508945 -2.15367690516877e-31
  outer loop
    vertex -2.598076211353316 1.4999999999999991 8.099999999999996
    vertex -2.897777478867205 0.7764571353075611 6.599999999999999
    vertex -2.897777478867205 0.7764571353075611 8.099999999999996
  endloop
endfacet
facet normal -0.9238795325112868 0.38268343236508945 -2.15367690516877e-31
  outer loop
    vertex -2.897777478867205 0.7764571353075611 6.599999999999999
    vertex -2.598076211353316 1.4999999999999991 8.099999999999996
    vertex -2.598076211353316 1.4999999999999991 6.599999999999999
  endloop
endfacet
facet normal -0.7933533402912357 0.6087614290087201 -2.896890723959759e-31
  outer loop
    vertex -2.1213203435596437 2.1213203435596415 8.099999999999996
    vertex -2.598076211353316 1.4999999999999991 6.599999999999999
    vertex -2.598076211353316 1.4999999999999991 8.099999999999996
  endloop
endfacet
facet normal -0.7933533402912357 0.6087614290087201 -2.896890723959759e-31
  outer loop
    vertex -2.598076211353316 1.4999999999999991 6.599999999999999
    vertex -2.1213203435596437 2.1213203435596415 8.099999999999996
    vertex -2.1213203435596437 2.1213203435596415 6.599999999999999
  endloop
endfacet
facet normal -0.6087614290087214 0.7933533402912345 -3.4426862272511647e-31
  outer loop
    vertex -2.1213203435596437 2.1213203435596415 8.099999999999996
    vertex -1.5000000000000013 2.5980762113533156 6.599999999999999
    vertex -2.1213203435596437 2.1213203435596415 6.599999999999999
  endloop
endfacet
facet normal -0.6087614290087214 0.7933533402912345 -3.4426862272511647e-31
  outer loop
    vertex -1.5000000000000013 2.5980762113533156 6.599999999999999
    vertex -2.1213203435596437 2.1213203435596415 8.099999999999996
    vertex -1.5000000000000013 2.5980762113533156 8.099999999999996
  endloop
endfacet
facet normal -0.38268343236509 0.9238795325112866 -3.753868353463395e-31
  outer loop
    vertex -1.5000000000000013 2.5980762113533156 8.099999999999996
    vertex -0.7764571353075645 2.8977774788672046 6.599999999999999
    vertex -1.5000000000000013 2.5980762113533156 6.599999999999999
  endloop
endfacet
facet normal -0.38268343236509 0.9238795325112866 -3.753868353463395e-31
  outer loop
    vertex -0.7764571353075645 2.8977774788672046 6.599999999999999
    vertex -1.5000000000000013 2.5980762113533156 8.099999999999996
    vertex -0.7764571353075645 2.8977774788672046 8.099999999999996
  endloop
endfacet
facet normal -0.1305261922200519 0.9914448613738104 -3.8092305549478635e-31
  outer loop
    vertex -0.7764571353075645 2.8977774788672046 8.099999999999996
    vertex -5.510910596163089e-16 3.0 6.599999999999999
    vertex -0.7764571353075645 2.8977774788672046 6.599999999999999
  endloop
endfacet
facet normal -0.1305261922200519 0.9914448613738104 -3.8092305549478635e-31
  outer loop
    vertex -5.510910596163089e-16 3.0 6.599999999999999
    vertex -0.7764571353075645 2.8977774788672046 8.099999999999996
    vertex -5.51091059616309e-16 3.0 8.099999999999996
  endloop
endfacet
facet normal 0.13052619222005146 0.9914448613738105 -3.604999989163766e-31
  outer loop
    vertex -5.51091059616309e-16 3.0 8.099999999999996
    vertex 0.7764571353075608 2.897777478867205 6.599999999999999
    vertex -5.510910596163089e-16 3.0 6.599999999999999
  endloop
endfacet
facet normal 0.13052619222005146 0.9914448613738105 -3.604999989163766e-31
  outer loop
    vertex 0.7764571353075608 2.897777478867205 6.599999999999999
    vertex -5.51091059616309e-16 3.0 8.099999999999996
    vertex 0.7764571353075608 2.897777478867205 8.099999999999996
  endloop
endfacet
facet normal 0.3826834323650891 0.9238795325112871 -3.1550946316623237e-31
  outer loop
    vertex 0.7764571353075608 2.897777478867205 8.099999999999996
    vertex 1.499999999999998 2.5980762113533173 6.599999999999999
    vertex 0.7764571353075608 2.897777478867205 6.599999999999999
  endloop
endfacet
facet normal 0.3826834323650891 0.9238795325112871 -3.1550946316623237e-31
  outer loop
    vertex 1.499999999999998 2.5980762113533173 6.599999999999999
    vertex 0.7764571353075608 2.897777478867205 8.099999999999996
    vertex 1.499999999999998 2.5980762113533173 8.099999999999996
  endloop
endfacet
facet normal 0.6087614290087202 0.7933533402912355 -2.4901747890535004e-31
  outer loop
    vertex 1.499999999999998 2.5980762113533173 8.099999999999996
    vertex 2.121320343559642 2.1213203435596433 6.599999999999999
    vertex 1.499999999999998 2.5980762113533173 6.599999999999999
  endloop
endfacet
facet normal 0.6087614290087202 0.7933533402912355 -2.4901747890535004e-31
  outer loop
    vertex 2.121320343559642 2.1213203435596433 6.599999999999999
    vertex 1.499999999999998 2.5980762113533173 8.099999999999996
    vertex 2.121320343559642 2.1213203435596433 8.099999999999996
  endloop
endfacet
facet normal 0.793353340291235 0.608761429008721 -1.6555536497790937e-31
  outer loop
    vertex 2.121320343559642 2.1213203435596433 6.599999999999999
    vertex 2.598076211353315 1.5000000000000016 8.099999999999996
    vertex 2.598076211353315 1.5000000000000016 6.599999999999999
  endloop
endfacet
facet normal 0.793353340291235 0.608761429008721 -1.6555536497790937e-31
  outer loop
    vertex 2.598076211353315 1.5000000000000016 8.099999999999996
    vertex 2.121320343559642 2.1213203435596433 6.599999999999999
    vertex 2.121320343559642 2.1213203435596433 8.099999999999996
  endloop
endfacet
facet normal 0.9238795325112865 0.38268343236509045 -7.081092652040083e-32
  outer loop
    vertex 2.598076211353315 1.5000000000000016 6.599999999999999
    vertex 2.897777478867204 0.7764571353075648 8.099999999999996
    vertex 2.897777478867204 0.7764571353075648 6.599999999999999
  endloop
endfacet
facet normal 0.9238795325112865 0.38268343236509045 -7.081092652040083e-32
  outer loop
    vertex 2.897777478867204 0.7764571353075648 8.099999999999996
    vertex 2.598076211353315 1.5000000000000016 6.599999999999999
    vertex 2.598076211353315 1.5000000000000016 8.099999999999996
  endloop
endfacet
facet normal 0.9914448613738104 0.13052619222005177 2.8759159558884325e-32
  outer loop
    vertex 2.897777478867204 0.7764571353075648 6.599999999999999
    vertex 3.0 7.478207647208932e-31 8.099999999999996
    vertex 3.0 0.0 6.599999999999999
  endloop
endfacet
facet normal 0.9914448613738104 0.13052619222005177 2.8759159558884325e-32
  outer loop
    vertex 3.0 7.478207647208932e-31 8.099999999999996
    vertex 2.897777478867204 0.7764571353075648 6.599999999999999
    vertex 2.897777478867204 0.7764571353075648 8.099999999999996
  endloop
endfacet
facet normal 0.9914448613738106 -0.13052619222005132 1.263693564409896e-31
  outer loop
    vertex 3.0 0.0 6.599999999999999
    vertex 2.897777478867205 -0.7764571353075622 8.099999999999996
    vertex 2.897777478867205 -0.7764571353075622 6.599999999999999
  endloop
endfacet
facet normal 0.9914448613738106 -0.13052619222005132 1.263693564409896e-31
  outer loop
    vertex 2.897777478867205 -0.7764571353075622 8.099999999999996
    vertex 3.0 0.0 6.599999999999999
    vertex 3.0 7.478207647208932e-31 8.099999999999996
  endloop
endfacet
facet normal -0.0 -0.0 1.0
  outer loop
    vertex -1.6903701960058697 -0.45293332892941063 8.099999999999996
    vertex -1.6903701960058695 0.45293332892941174 8.099999999999996
    vertex -1.75 2.1431318985078754e-16 8.099999999999996
  endloop
endfacet
facet normal -0.0 -0.0 1.0
  outer loop
    vertex -1.6903701960058695 0.45293332892941174 8.099999999999996
    vertex -1.6903701960058697 -0.45293332892941063 8.099999999999996
    vertex -1.5155444566227678 -0.8749999999999994 8.099999999999996
  endloop
endfacet
facet normal -0.0 -0.0 1.0
  outer loop
    vertex -1.6903701960058695 0.45293332892941174 8.099999999999996
    vertex -1.5155444566227678 -0.8749999999999994 8.099999999999996
    vertex -1.5155444566227674 0.8750000000000006 8.099999999999996
  endloop
endfacet
facet normal -0.0 -0.0 1.0
  outer loop
    vertex -1.5155444566227674 0.8750000000000006 8.099999999999996
    vertex -1.5155444566227678 -0.8749999999999994 8.099999999999996
    vertex -1.2374368670764588 -1.2374368670764573 8.099999999999996
  endloop
endfacet
facet normal -0.0 -0.0 1.0
  outer loop
    vertex -1.5155444566227674 0.8750000000000006 8.099999999999996
    vertex -1.2374368670764588 -1.2374368670764573 8.099999999999996
    vertex -1.2374368670764582 1.2374368670764582 8.099999999999996
  endloop
endfacet
facet normal -0.0 -0.0 1.0
  outer loop
    vertex -1.2374368670764582 1.2374368670764582 8.099999999999996
    vertex -1.2374368670764588 -1.2374368670764573 8.099999999999996
    vertex -0.8750000000000007 -1.5155444566227674 8.099999999999996
  endloop
endfacet
facet normal -0.0 -0.0 1.0
  outer loop
    vertex -1.2374368670764582 1.2374368670764582 8.099999999999996
    vertex -0.8750000000000007 -1.5155444566227674 8.099999999999996
    vertex -0.8749999999999997 1.5155444566227676 8.099999999999996
  endloop
endfacet
facet normal -0.0 -0.0 1.0
  outer loop
    vertex -0.8749999999999997 1.5155444566227676 8.099999999999996
    vertex -0.8750000000000007 -1.5155444566227674 8.099999999999996
    vertex -0.4529333289294126 -1.690370196005869 8.099999999999996
  endloop
endfacet
facet normal -0.0 -0.0 1.0
  outer loop
    vertex -0.8749999999999997 1.5155444566227676 8.099999999999996
    vertex -0.4529333289294126 -1.690370196005869 8.099999999999996
    vertex -0.45293332892941107 1.6903701960058695 8.099999999999996
  endloop
endfacet
facet normal -0.0 -0.0 1.0
  outer loop
    vertex -0.45293332892941107 1.6903701960058695 8.099999999999996
    vertex -0.4529333289294126 -1.690370196005869 8.099999999999996
    vertex -3.2146978477618036e-16 -1.75 8.099999999999996
  endloop
endfacet
facet normal -0.0 -0.0 1.0
  outer loop
    vertex -0.45293332892941107 1.6903701960058695 8.099999999999996
    vertex -3.2146978477618036e-16 -1.75 8.099999999999996
    vertex 1.0715659492539324e-16 1.75 8.099999999999996
  endloop
endfacet
facet normal -0.0 -0.0 1.0
  outer loop
    vertex 1.0715659492539324e-16 1.75 8.099999999999996
    vertex -3.2146978477618036e-16 -1.75 8.099999999999996
    vertex 0.4529333289294105 -1.6903701960058697 8.099999999999996
  endloop
endfacet
facet normal -0.0 -0.0 1.0
  outer loop
    vertex 1.0715659492539324e-16 1.75 8.099999999999996
    vertex 0.4529333289294105 -1.6903701960058697 8.099999999999996
    vertex 0.4529333289294117 1.6903701960058695 8.099999999999996
  endloop
endfacet
facet normal -0.0 -0.0 1.0
  outer loop
    vertex 0.4529333289294117 1.6903701960058695 8.099999999999996
    vertex 0.4529333289294105 -1.6903701960058697 8.099999999999996
    vertex 0.8749999999999988 -1.5155444566227683 8.099999999999996
  endloop
endfacet
facet normal -0.0 -0.0 1.0
  outer loop
    vertex 0.4529333289294117 1.6903701960058695 8.099999999999996
    vertex 0.8749999999999988 -1.5155444566227683 8.099999999999996
    vertex 0.8750000000000001 1.5155444566227676 8.099999999999996
  endloop
endfacet
facet normal -0.0 -0.0 1.0
  outer loop
    vertex 0.8750000000000001 1.5155444566227676 8.099999999999996
    vertex 0.8749999999999988 -1.5155444566227683 8.099999999999996
    vertex 1.237436867076458 -1.2374368670764584 8.099999999999996
  endloop
endfacet
facet normal -0.0 -0.0 1.0
  outer loop
    vertex 0.8750000000000001 1.5155444566227676 8.099999999999996
    vertex 1.237436867076458 -1.2374368670764584 8.099999999999996
    vertex 1.2374368670764582 1.2374368670764582 8.099999999999996
  endloop
endfacet
facet normal -0.0 -0.0 1.0
  outer loop
    vertex 1.2374368670764582 1.2374368670764582 8.099999999999996
    vertex 1.237436867076458 -1.2374368670764584 8.099999999999996
    vertex 1.5155444566227672 -0.8750000000000007 8.099999999999996
  endloop
endfacet
facet normal -0.0 -0.0 1.0
  outer loop
    vertex 1.2374368670764582 1.2374368670764582 8.099999999999996
    vertex 1.5155444566227672 -0.8750000000000007 8.099999999999996
    vertex 1.5155444566227676 0.8749999999999998 8.099999999999996
  endloop
endfacet
facet normal -0.0 -0.0 1.0
  outer loop
    vertex 1.5155444566227676 0.8749999999999998 8.099999999999996
    vertex 1.5155444566227672 -0.8750000000000007 8.099999999999996
    vertex 1.690370196005869 -0.45293332892941274 8.099999999999996
  endloop
endfacet
facet normal -0.0 -0.0 1.0
  outer loop
    vertex 1.5155444566227676 0.8749999999999998 8.099999999999996
    vertex 1.690370196005869 -0.45293332892941274 8.099999999999996
    vertex 1.6903701960058695 0.4529333289294113 8.099999999999996
  endloop
endfacet
facet normal -0.0 -0.0 1.0
  outer loop
    vertex 1.6903701960058695 0.4529333289294113 8.099999999999996
    vertex 1.690370196005869 -0.45293332892941274 8.099999999999996
    vertex 1.75 7.478207647208932e-31 8.099999999999996
  endloop
endfacet
endsolid fpvlaptracker key 1.5mm a
